<svg width="30" height="29" viewBox="0 0 30 29" fill="none" xmlns="http://www.w3.org/2000/svg">
<g filter="url(#filter0_di_160:1134)">
<path d="M16 5.4C15.6287 5.4 15.2726 5.54223 15.0101 5.79541C14.7475 6.04858 14.6 6.39196 14.6 6.75V20.25C14.6 20.608 14.7475 20.9514 15.0101 21.2046C15.2726 21.4578 15.6287 21.6 16 21.6C16.3713 21.6 16.7274 21.4578 16.9899 21.2046C17.2525 20.9514 17.4 20.608 17.4 20.25V6.75C17.4 6.39196 17.2525 6.04858 16.9899 5.79541C16.7274 5.54223 16.3713 5.4 16 5.4ZM9 13.5C8.6287 13.5 8.2726 13.6422 8.01005 13.8954C7.7475 14.1486 7.6 14.492 7.6 14.85V20.25C7.6 20.608 7.7475 20.9514 8.01005 21.2046C8.2726 21.4578 8.6287 21.6 9 21.6C9.3713 21.6 9.7274 21.4578 9.98995 21.2046C10.2525 20.9514 10.4 20.608 10.4 20.25V14.85C10.4 14.492 10.2525 14.1486 9.98995 13.8954C9.7274 13.6422 9.3713 13.5 9 13.5ZM23 10.8C22.6287 10.8 22.2726 10.9422 22.01 11.1954C21.7475 11.4486 21.6 11.792 21.6 12.15V20.25C21.6 20.608 21.7475 20.9514 22.01 21.2046C22.2726 21.4578 22.6287 21.6 23 21.6C23.3713 21.6 23.7274 21.4578 23.99 21.2046C24.2525 20.9514 24.4 20.608 24.4 20.25V12.15C24.4 11.792 24.2525 11.4486 23.99 11.1954C23.7274 10.9422 23.3713 10.8 23 10.8ZM25.8 0H6.2C5.08609 0 4.0178 0.426695 3.23015 1.18622C2.4425 1.94574 2 2.97587 2 4.05V22.95C2 24.0241 2.4425 25.0543 3.23015 25.8138C4.0178 26.5733 5.08609 27 6.2 27H25.8C26.9139 27 27.9822 26.5733 28.7698 25.8138C29.5575 25.0543 30 24.0241 30 22.95V4.05C30 2.97587 29.5575 1.94574 28.7698 1.18622C27.9822 0.426695 26.9139 0 25.8 0ZM27.2 22.95C27.2 23.308 27.0525 23.6514 26.7899 23.9046C26.5274 24.1578 26.1713 24.3 25.8 24.3H6.2C5.8287 24.3 5.4726 24.1578 5.21005 23.9046C4.9475 23.6514 4.8 23.308 4.8 22.95V4.05C4.8 3.69196 4.9475 3.34858 5.21005 3.09541C5.4726 2.84223 5.8287 2.7 6.2 2.7H25.8C26.1713 2.7 26.5274 2.84223 26.7899 3.09541C27.0525 3.34858 27.2 3.69196 27.2 4.05V22.95Z" fill="white"/>
</g>
<defs>
<filter id="filter0_di_160:1134" x="0" y="0" width="30" height="29" filterUnits="userSpaceOnUse" color-interpolation-filters="sRGB">
<feFlood flood-opacity="0" result="BackgroundImageFix"/>
<feColorMatrix in="SourceAlpha" type="matrix" values="0 0 0 0 0 0 0 0 0 0 0 0 0 0 0 0 0 0 127 0" result="hardAlpha"/>
<feOffset dx="-2" dy="2"/>
<feComposite in2="hardAlpha" operator="out"/>
<feColorMatrix type="matrix" values="0 0 0 0 0.0935764 0 0 0 0 0.510125 0 0 0 0 0.641667 0 0 0 1 0"/>
<feBlend mode="normal" in2="BackgroundImageFix" result="effect1_dropShadow_160:1134"/>
<feBlend mode="normal" in="SourceGraphic" in2="effect1_dropShadow_160:1134" result="shape"/>
<feColorMatrix in="SourceAlpha" type="matrix" values="0 0 0 0 0 0 0 0 0 0 0 0 0 0 0 0 0 0 127 0" result="hardAlpha"/>
<feOffset/>
<feGaussianBlur stdDeviation="1"/>
<feComposite in2="hardAlpha" operator="arithmetic" k2="-1" k3="1"/>
<feColorMatrix type="matrix" values="0 0 0 0 0 0 0 0 0 0 0 0 0 0 0 0 0 0 0.25 0"/>
<feBlend mode="normal" in2="shape" result="effect2_innerShadow_160:1134"/>
</filter>
</defs>
</svg>
