<svg width="30" height="29" viewBox="0 0 30 29" fill="none" xmlns="http://www.w3.org/2000/svg">
<g filter="url(#filter0_di_160:1149)">
<path d="M15.9819 8.10313C14.8764 8.10313 13.7957 8.41965 12.8765 9.01267C11.9574 9.60568 11.2409 10.4486 10.8179 11.4347C10.3948 12.4209 10.2841 13.506 10.4998 14.5529C10.7155 15.5998 11.2478 16.5614 12.0295 17.3162C12.8112 18.0709 13.8072 18.5849 14.8915 18.7932C15.9757 19.0014 17.0996 18.8945 18.1209 18.4861C19.1423 18.0776 20.0153 17.3859 20.6294 16.4983C21.2436 15.6108 21.5714 14.5674 21.5714 13.5C21.5714 12.0687 20.9825 10.6959 19.9343 9.68384C18.8861 8.67173 17.4644 8.10313 15.9819 8.10313ZM15.9819 16.1984C15.4292 16.1984 14.8888 16.0402 14.4292 15.7437C13.9696 15.4472 13.6114 15.0257 13.3999 14.5326C13.1884 14.0396 13.133 13.497 13.2409 12.9736C13.3487 12.4501 13.6149 11.9693 14.0057 11.5919C14.3966 11.2145 14.8946 10.9575 15.4367 10.8534C15.9788 10.7493 16.5407 10.8027 17.0514 11.007C17.5621 11.2112 17.9986 11.5571 18.3057 12.0008C18.6128 12.4446 18.7767 12.9663 18.7767 13.5C18.7767 14.2157 18.4822 14.902 17.9581 15.4081C17.434 15.9141 16.7231 16.1984 15.9819 16.1984ZM29.5505 12.5421L26.2666 9.45235V4.91898C26.2666 4.56114 26.1194 4.21796 25.8574 3.96493C25.5953 3.71191 25.2399 3.56976 24.8693 3.56976H20.2439L16.9741 0.399096C16.8442 0.272636 16.6896 0.172262 16.5193 0.103764C16.349 0.0352662 16.1664 0 15.9819 0C15.7974 0 15.6148 0.0352662 15.4445 0.103764C15.2742 0.172262 15.1197 0.272636 14.9898 0.399096L11.7898 3.56976H7.09457C6.72396 3.56976 6.36853 3.71191 6.10647 3.96493C5.84441 4.21796 5.69719 4.56114 5.69719 4.91898V9.45235L2.41334 12.5421C2.28237 12.6675 2.17841 12.8167 2.10747 12.9811C2.03653 13.1455 2 13.3219 2 13.5C2 13.6781 2.03653 13.8545 2.10747 14.0189C2.17841 14.1833 2.28237 14.3325 2.41334 14.4579L5.69719 17.6151V22.081C5.69719 22.4389 5.84441 22.782 6.10647 23.0351C6.36853 23.2881 6.72396 23.4302 7.09457 23.4302H11.7898L15.0596 26.6009C15.1896 26.7274 15.3441 26.8277 15.5144 26.8962C15.6847 26.9647 15.8673 27 16.0518 27C16.2363 27 16.4189 26.9647 16.5892 26.8962C16.7595 26.8277 16.914 26.7274 17.0439 26.6009L20.3138 23.4302H24.9391C25.3097 23.4302 25.6652 23.2881 25.9272 23.0351C26.1893 22.782 26.3365 22.4389 26.3365 22.081V17.6151L29.6204 14.4579C29.7469 14.3281 29.8455 14.1754 29.9105 14.0085C29.9755 13.8417 30.0056 13.6641 29.9991 13.4859C29.9926 13.3078 29.9496 13.1327 29.8726 12.9706C29.7956 12.8086 29.6861 12.663 29.5505 12.5421ZM23.8911 16.104C23.7591 16.2289 23.654 16.378 23.5821 16.5424C23.5101 16.7068 23.4726 16.8834 23.4719 17.0619V20.7318H19.671C19.4861 20.7325 19.3032 20.7687 19.1329 20.8382C18.9626 20.9077 18.8083 21.0091 18.6789 21.1366L15.9819 23.7406L13.285 21.1366C13.1556 21.0091 13.0012 20.9077 12.8309 20.8382C12.6606 20.7687 12.4777 20.7325 12.2928 20.7318H8.49195V17.0619C8.49118 16.8834 8.45374 16.7068 8.38178 16.5424C8.30981 16.378 8.20477 16.2289 8.07274 16.104L5.37579 13.5L8.07274 10.896C8.20477 10.7711 8.30981 10.622 8.38178 10.4576C8.45374 10.2932 8.49118 10.1166 8.49195 9.93806V6.26819H12.2928C12.4777 6.26745 12.6606 6.23129 12.8309 6.16181C13.0012 6.09233 13.1556 5.99091 13.285 5.86343L15.9819 3.25944L18.6789 5.86343C18.8083 5.99091 18.9626 6.09233 19.1329 6.16181C19.3032 6.23129 19.4861 6.26745 19.671 6.26819H23.4719V9.93806C23.4726 10.1166 23.5101 10.2932 23.5821 10.4576C23.654 10.622 23.7591 10.7711 23.8911 10.896L26.588 13.5L23.8911 16.104Z" fill="white"/>
</g>
<defs>
<filter id="filter0_di_160:1149" x="0" y="0" width="30" height="29" filterUnits="userSpaceOnUse" color-interpolation-filters="sRGB">
<feFlood flood-opacity="0" result="BackgroundImageFix"/>
<feColorMatrix in="SourceAlpha" type="matrix" values="0 0 0 0 0 0 0 0 0 0 0 0 0 0 0 0 0 0 127 0" result="hardAlpha"/>
<feOffset dx="-2" dy="2"/>
<feComposite in2="hardAlpha" operator="out"/>
<feColorMatrix type="matrix" values="0 0 0 0 0.0935764 0 0 0 0 0.510125 0 0 0 0 0.641667 0 0 0 1 0"/>
<feBlend mode="normal" in2="BackgroundImageFix" result="effect1_dropShadow_160:1149"/>
<feBlend mode="normal" in="SourceGraphic" in2="effect1_dropShadow_160:1149" result="shape"/>
<feColorMatrix in="SourceAlpha" type="matrix" values="0 0 0 0 0 0 0 0 0 0 0 0 0 0 0 0 0 0 127 0" result="hardAlpha"/>
<feOffset/>
<feGaussianBlur stdDeviation="1"/>
<feComposite in2="hardAlpha" operator="arithmetic" k2="-1" k3="1"/>
<feColorMatrix type="matrix" values="0 0 0 0 0 0 0 0 0 0 0 0 0 0 0 0 0 0 0.25 0"/>
<feBlend mode="normal" in2="shape" result="effect2_innerShadow_160:1149"/>
</filter>
</defs>
</svg>
