<svg width="30" height="29" viewBox="0 0 30 29" fill="none" xmlns="http://www.w3.org/2000/svg">
<g filter="url(#filter0_di_160:1137)">
<path d="M12.5 11.4781H16C16.3713 11.4781 16.7274 11.3359 16.99 11.0828C17.2525 10.8296 17.4 10.4863 17.4 10.1284C17.4 9.77038 17.2525 9.42707 16.99 9.17395C16.7274 8.92083 16.3713 8.77862 16 8.77862H14.6V8.10375C14.6 7.74578 14.4525 7.40247 14.19 7.14935C13.9274 6.89623 13.5713 6.75402 13.2 6.75402C12.8287 6.75402 12.4726 6.89623 12.2101 7.14935C11.9475 7.40247 11.8 7.74578 11.8 8.10375V8.84611C10.9494 9.01263 10.1933 9.47792 9.67853 10.1517C9.16374 10.8254 8.92698 11.6595 9.01421 12.4921C9.10144 13.3246 9.50644 14.0963 10.1506 14.6571C10.7947 15.218 11.632 15.5281 12.5 15.5273H13.9C14.0857 15.5273 14.2637 15.5984 14.395 15.7249C14.5263 15.8515 14.6 16.0232 14.6 16.2021C14.6 16.3811 14.5263 16.5528 14.395 16.6793C14.2637 16.8059 14.0857 16.877 13.9 16.877H10.4C10.0287 16.877 9.67261 17.0192 9.41006 17.2723C9.14751 17.5255 9.00001 17.8688 9.00001 18.2267C9.00001 18.5847 9.14751 18.928 9.41006 19.1812C9.67261 19.4343 10.0287 19.5765 10.4 19.5765H11.8V20.2513C11.8 20.6093 11.9475 20.9526 12.2101 21.2057C12.4726 21.4589 12.8287 21.6011 13.2 21.6011C13.5713 21.6011 13.9274 21.4589 14.19 21.2057C14.4525 20.9526 14.6 20.6093 14.6 20.2513V19.509C15.4506 19.3425 16.2067 18.8772 16.7215 18.2034C17.2363 17.5297 17.473 16.6956 17.3858 15.863C17.2986 15.0305 16.8936 14.2588 16.2494 13.698C15.6053 13.1371 14.768 12.827 13.9 12.8278H12.5C12.3144 12.8278 12.1363 12.7567 12.005 12.6302C11.8738 12.5036 11.8 12.3319 11.8 12.153C11.8 11.974 11.8738 11.8023 12.005 11.6757C12.1363 11.5492 12.3144 11.4781 12.5 11.4781ZM28.6 13.5027H24.4V1.3551C24.401 1.11726 24.3368 0.883397 24.2138 0.677188C24.0909 0.470979 23.9136 0.299747 23.7 0.18083C23.4872 0.0623662 23.2458 0 23 0C22.7543 0 22.5128 0.0623662 22.3 0.18083L18.1 2.50237L13.9 0.18083C13.6872 0.0623662 13.4458 0 13.2 0C12.9543 0 12.7128 0.0623662 12.5 0.18083L8.30001 2.50237L4.10001 0.18083C3.88718 0.0623662 3.64576 0 3.40001 0C3.15426 0 2.91284 0.0623662 2.70001 0.18083C2.48636 0.299747 2.30911 0.470979 2.18618 0.677188C2.06326 0.883397 1.99903 1.11726 2.00001 1.3551V22.9508C2.00001 24.0247 2.44251 25.0546 3.23016 25.814C4.01781 26.5734 5.0861 27 6.20001 27H25.8C26.9139 27 27.9822 26.5734 28.7698 25.814C29.5575 25.0546 30 24.0247 30 22.9508V14.8524C30 14.4944 29.8525 14.1511 29.59 13.898C29.3274 13.6449 28.9713 13.5027 28.6 13.5027ZM6.20001 24.3005C5.82871 24.3005 5.47261 24.1583 5.21006 23.9052C4.94751 23.6521 4.80001 23.3088 4.80001 22.9508V3.69013L7.60001 5.22883C7.81608 5.33763 8.05624 5.39445 8.30001 5.39445C8.54378 5.39445 8.78394 5.33763 9.00001 5.22883L13.2 2.90729L17.4 5.22883C17.6161 5.33763 17.8562 5.39445 18.1 5.39445C18.3438 5.39445 18.5839 5.33763 18.8 5.22883L21.6 3.69013V22.9508C21.6038 23.4113 21.689 23.8677 21.852 24.3005H6.20001ZM27.2 22.9508C27.2 23.3088 27.0525 23.6521 26.79 23.9052C26.5274 24.1583 26.1713 24.3005 25.8 24.3005C25.4287 24.3005 25.0726 24.1583 24.8101 23.9052C24.5475 23.6521 24.4 23.3088 24.4 22.9508V16.2021H27.2V22.9508Z" fill="white"/>
</g>
<defs>
<filter id="filter0_di_160:1137" x="0" y="0" width="30" height="29" filterUnits="userSpaceOnUse" color-interpolation-filters="sRGB">
<feFlood flood-opacity="0" result="BackgroundImageFix"/>
<feColorMatrix in="SourceAlpha" type="matrix" values="0 0 0 0 0 0 0 0 0 0 0 0 0 0 0 0 0 0 127 0" result="hardAlpha"/>
<feOffset dx="-2" dy="2"/>
<feComposite in2="hardAlpha" operator="out"/>
<feColorMatrix type="matrix" values="0 0 0 0 0.0935764 0 0 0 0 0.510125 0 0 0 0 0.641667 0 0 0 1 0"/>
<feBlend mode="normal" in2="BackgroundImageFix" result="effect1_dropShadow_160:1137"/>
<feBlend mode="normal" in="SourceGraphic" in2="effect1_dropShadow_160:1137" result="shape"/>
<feColorMatrix in="SourceAlpha" type="matrix" values="0 0 0 0 0 0 0 0 0 0 0 0 0 0 0 0 0 0 127 0" result="hardAlpha"/>
<feOffset/>
<feGaussianBlur stdDeviation="1"/>
<feComposite in2="hardAlpha" operator="arithmetic" k2="-1" k3="1"/>
<feColorMatrix type="matrix" values="0 0 0 0 0 0 0 0 0 0 0 0 0 0 0 0 0 0 0.25 0"/>
<feBlend mode="normal" in2="shape" result="effect2_innerShadow_160:1137"/>
</filter>
</defs>
</svg>
