<svg width="18" height="29" viewBox="0 0 18 29" fill="none" xmlns="http://www.w3.org/2000/svg">
<g filter="url(#filter0_di_160:1143)">
<path d="M12.6667 12.15H11.3333V6.75H14C14.3536 6.75 14.6928 6.89223 14.9428 7.14541C15.1929 7.39858 15.3333 7.74196 15.3333 8.1C15.3333 8.45804 15.4738 8.80142 15.7239 9.05459C15.9739 9.30777 16.313 9.45 16.6667 9.45C17.0203 9.45 17.3594 9.30777 17.6095 9.05459C17.8595 8.80142 18 8.45804 18 8.1C18 7.02587 17.5786 5.99574 16.8284 5.23622C16.0783 4.4767 15.0609 4.05 14 4.05H11.3333V1.35C11.3333 0.991958 11.1929 0.64858 10.9428 0.395406C10.6928 0.142232 10.3536 0 10 0C9.64638 0 9.30724 0.142232 9.05719 0.395406C8.80714 0.64858 8.66667 0.991958 8.66667 1.35V4.05H7.33333C5.91885 4.05 4.56229 4.61893 3.5621 5.63162C2.5619 6.64432 2 8.01783 2 9.45C2 10.8822 2.5619 12.2557 3.5621 13.2684C4.56229 14.2811 5.91885 14.85 7.33333 14.85H8.66667V20.25H6C5.64638 20.25 5.30724 20.1078 5.05719 19.8546C4.80714 19.6014 4.66667 19.258 4.66667 18.9C4.66667 18.542 4.52619 18.1986 4.27614 17.9454C4.02609 17.6922 3.68696 17.55 3.33333 17.55C2.97971 17.55 2.64057 17.6922 2.39052 17.9454C2.14048 18.1986 2 18.542 2 18.9C2 19.9741 2.42143 21.0043 3.17157 21.7638C3.92172 22.5233 4.93913 22.95 6 22.95H8.66667V25.65C8.66667 26.008 8.80714 26.3514 9.05719 26.6046C9.30724 26.8578 9.64638 27 10 27C10.3536 27 10.6928 26.8578 10.9428 26.6046C11.1929 26.3514 11.3333 26.008 11.3333 25.65V22.95H12.6667C14.0812 22.95 15.4377 22.3811 16.4379 21.3684C17.4381 20.3557 18 18.9822 18 17.55C18 16.1178 17.4381 14.7443 16.4379 13.7316C15.4377 12.7189 14.0812 12.15 12.6667 12.15ZM8.66667 12.15H7.33333C6.62609 12.15 5.94781 11.8655 5.44772 11.3592C4.94762 10.8528 4.66667 10.1661 4.66667 9.45C4.66667 8.73392 4.94762 8.04716 5.44772 7.54081C5.94781 7.03446 6.62609 6.75 7.33333 6.75H8.66667V12.15ZM12.6667 20.25H11.3333V14.85H12.6667C13.3739 14.85 14.0522 15.1345 14.5523 15.6408C15.0524 16.1472 15.3333 16.8339 15.3333 17.55C15.3333 18.2661 15.0524 18.9528 14.5523 19.4592C14.0522 19.9655 13.3739 20.25 12.6667 20.25Z" fill="white"/>
</g>
<defs>
<filter id="filter0_di_160:1143" x="0" y="0" width="18" height="29" filterUnits="userSpaceOnUse" color-interpolation-filters="sRGB">
<feFlood flood-opacity="0" result="BackgroundImageFix"/>
<feColorMatrix in="SourceAlpha" type="matrix" values="0 0 0 0 0 0 0 0 0 0 0 0 0 0 0 0 0 0 127 0" result="hardAlpha"/>
<feOffset dx="-2" dy="2"/>
<feComposite in2="hardAlpha" operator="out"/>
<feColorMatrix type="matrix" values="0 0 0 0 0.0935764 0 0 0 0 0.510125 0 0 0 0 0.641667 0 0 0 1 0"/>
<feBlend mode="normal" in2="BackgroundImageFix" result="effect1_dropShadow_160:1143"/>
<feBlend mode="normal" in="SourceGraphic" in2="effect1_dropShadow_160:1143" result="shape"/>
<feColorMatrix in="SourceAlpha" type="matrix" values="0 0 0 0 0 0 0 0 0 0 0 0 0 0 0 0 0 0 127 0" result="hardAlpha"/>
<feOffset/>
<feGaussianBlur stdDeviation="1"/>
<feComposite in2="hardAlpha" operator="arithmetic" k2="-1" k3="1"/>
<feColorMatrix type="matrix" values="0 0 0 0 0 0 0 0 0 0 0 0 0 0 0 0 0 0 0.25 0"/>
<feBlend mode="normal" in2="shape" result="effect2_innerShadow_160:1143"/>
</filter>
</defs>
</svg>
