<svg width="32" height="24" viewBox="0 0 32 24" fill="none" xmlns="http://www.w3.org/2000/svg">
<g filter="url(#filter0_di_160:1146)">
<path d="M11.5564 9.6251H22.4486C22.6497 9.62376 22.848 9.57744 23.0292 9.48948C23.2105 9.40152 23.3702 9.27409 23.4969 9.11636C23.63 8.96172 23.7272 8.77899 23.7814 8.58154C23.8356 8.38409 23.8454 8.1769 23.8101 7.97513L22.4486 1.10026C22.3849 0.785011 22.2138 0.502287 21.965 0.3013C21.7162 0.100313 21.4056 -0.00620731 21.087 0.000279724H12.9179C12.5994 -0.00620731 12.2887 0.100313 12.0399 0.3013C11.7911 0.502287 11.62 0.785011 11.5564 1.10026L10.1948 7.97513C10.1559 8.17487 10.1613 8.38085 10.2107 8.57821C10.2602 8.77557 10.3524 8.95938 10.4808 9.11636C10.6103 9.27771 10.7744 9.40731 10.9607 9.49542C11.147 9.58354 11.3507 9.62787 11.5564 9.6251ZM14.0343 2.75023H19.9706L20.7875 6.87515H13.2174L14.0343 2.75023ZM30.6177 13.475C30.5541 13.1598 30.3829 12.8771 30.1342 12.6761C29.8854 12.4751 29.5747 12.3686 29.2562 12.3751H21.087C20.7685 12.3686 20.4578 12.4751 20.209 12.6761C19.9603 12.8771 19.7892 13.1598 19.7255 13.475L18.364 20.3499C18.325 20.5496 18.3304 20.7556 18.3799 20.953C18.4293 21.1503 18.5216 21.3342 18.6499 21.4911C18.7795 21.6525 18.9436 21.7821 19.1299 21.8702C19.3162 21.9583 19.5198 22.0026 19.7255 21.9999H30.6177C30.8188 21.9985 31.0171 21.9522 31.1984 21.8643C31.3797 21.7763 31.5394 21.6489 31.6661 21.4911C31.7992 21.3365 31.8964 21.1538 31.9506 20.9563C32.0047 20.7589 32.0145 20.5517 31.9792 20.3499L30.6177 13.475ZM21.3866 19.2499L22.2035 15.125H28.1397L28.9566 19.2499H21.3866ZM12.9179 12.3751H4.74874C4.43021 12.3686 4.11952 12.4751 3.87075 12.6761C3.62197 12.8771 3.45086 13.1598 3.38721 13.475L2.02569 20.3499C1.98671 20.5496 1.99215 20.7556 2.04159 20.953C2.09104 21.1503 2.18326 21.3342 2.31161 21.4911C2.44119 21.6525 2.60529 21.7821 2.79158 21.8702C2.97787 21.9583 3.18152 22.0026 3.38721 21.9999H14.2794C14.4805 21.9985 14.6788 21.9522 14.8601 21.8643C15.0414 21.7763 15.2011 21.6489 15.3278 21.4911C15.4609 21.3365 15.5581 21.1538 15.6123 20.9563C15.6664 20.7589 15.6762 20.5517 15.6409 20.3499L14.2794 13.475C14.2158 13.1598 14.0447 12.8771 13.7959 12.6761C13.5471 12.4751 13.2364 12.3686 12.9179 12.3751ZM5.04827 19.2499L5.86519 15.125H11.8014L12.6184 19.2499H5.04827Z" fill="white"/>
</g>
<defs>
<filter id="filter0_di_160:1146" x="0" y="0" width="32" height="24" filterUnits="userSpaceOnUse" color-interpolation-filters="sRGB">
<feFlood flood-opacity="0" result="BackgroundImageFix"/>
<feColorMatrix in="SourceAlpha" type="matrix" values="0 0 0 0 0 0 0 0 0 0 0 0 0 0 0 0 0 0 127 0" result="hardAlpha"/>
<feOffset dx="-2" dy="2"/>
<feComposite in2="hardAlpha" operator="out"/>
<feColorMatrix type="matrix" values="0 0 0 0 0.0935764 0 0 0 0 0.510125 0 0 0 0 0.641667 0 0 0 1 0"/>
<feBlend mode="normal" in2="BackgroundImageFix" result="effect1_dropShadow_160:1146"/>
<feBlend mode="normal" in="SourceGraphic" in2="effect1_dropShadow_160:1146" result="shape"/>
<feColorMatrix in="SourceAlpha" type="matrix" values="0 0 0 0 0 0 0 0 0 0 0 0 0 0 0 0 0 0 127 0" result="hardAlpha"/>
<feOffset/>
<feGaussianBlur stdDeviation="1"/>
<feComposite in2="hardAlpha" operator="arithmetic" k2="-1" k3="1"/>
<feColorMatrix type="matrix" values="0 0 0 0 0 0 0 0 0 0 0 0 0 0 0 0 0 0 0.25 0"/>
<feBlend mode="normal" in2="shape" result="effect2_innerShadow_160:1146"/>
</filter>
</defs>
</svg>
