<svg width="32" height="25" viewBox="0 0 32 25" fill="none" xmlns="http://www.w3.org/2000/svg">
<g filter="url(#filter0_di_160:1140)">
<path d="M17.43 11.7976C18.1586 11.1728 18.743 10.3999 19.1436 9.5315C19.5441 8.6631 19.7514 7.71949 19.7514 6.76471C19.7514 4.97059 19.0321 3.24997 17.7517 1.98134C16.4713 0.712708 14.7347 2.42056e-07 12.9239 2.42056e-07C11.1132 2.42056e-07 9.37658 0.712708 8.09619 1.98134C6.81579 3.24997 6.09647 4.97059 6.09647 6.76471C6.09646 7.71949 6.30376 8.6631 6.70429 9.5315C7.10482 10.3999 7.68921 11.1728 8.41781 11.7976C6.50631 12.6553 4.88455 14.0402 3.74644 15.7869C2.60832 17.5335 2.00201 19.568 2 21.6471C2 22.0059 2.14386 22.35 2.39994 22.6037C2.65602 22.8575 3.00334 23 3.36549 23C3.72764 23 4.07496 22.8575 4.33104 22.6037C4.58712 22.35 4.73098 22.0059 4.73098 21.6471C4.73098 19.4941 5.59416 17.4294 7.13064 15.907C8.66711 14.3847 10.751 13.5294 12.9239 13.5294C15.0968 13.5294 17.1807 14.3847 18.7172 15.907C20.2537 17.4294 21.1169 19.4941 21.1169 21.6471C21.1169 22.0059 21.2607 22.35 21.5168 22.6037C21.7729 22.8575 22.1202 23 22.4824 23C22.8445 23 23.1918 22.8575 23.4479 22.6037C23.704 22.35 23.8478 22.0059 23.8478 21.6471C23.8458 19.568 23.2395 17.5335 22.1014 15.7869C20.9633 14.0402 19.3415 12.6553 17.43 11.7976ZM12.9239 10.8235C12.1137 10.8235 11.3217 10.5855 10.648 10.1395C9.97439 9.6935 9.44933 9.0596 9.13928 8.31795C8.82923 7.5763 8.7481 6.7602 8.90617 5.97287C9.06423 5.18553 9.45438 4.46232 10.0273 3.89468C10.6002 3.32705 11.3301 2.94048 12.1247 2.78387C12.9194 2.62726 13.743 2.70764 14.4916 3.01484C15.2401 3.32205 15.8799 3.84227 16.33 4.50974C16.7801 5.17721 17.0204 5.96195 17.0204 6.76471C17.0204 7.84117 16.5888 8.87355 15.8206 9.63473C15.0523 10.3959 14.0104 10.8235 12.9239 10.8235ZM26.2238 11.2565C27.0977 10.2814 27.6685 9.07696 27.8676 7.78799C28.0667 6.49902 27.8855 5.18051 27.3459 3.99118C26.8063 2.80184 25.9313 1.79237 24.8262 1.08428C23.7211 0.376185 22.4329 -0.000348518 21.1169 2.42056e-07C20.7547 2.42056e-07 20.4074 0.142542 20.1513 0.396267C19.8952 0.649993 19.7514 0.994119 19.7514 1.35294C19.7514 1.71176 19.8952 2.05589 20.1513 2.30962C20.4074 2.56334 20.7547 2.70588 21.1169 2.70588C22.2033 2.70588 23.2453 3.13351 24.0135 3.89468C24.7817 4.65586 25.2133 5.68824 25.2133 6.76471C25.2114 7.47532 25.0212 8.17299 24.6618 8.78792C24.3023 9.40286 23.7862 9.91352 23.1651 10.2688C22.9627 10.3845 22.7936 10.5498 22.674 10.7488C22.5545 10.9478 22.4885 11.1738 22.4824 11.4053C22.4766 11.635 22.5301 11.8623 22.6376 12.0659C22.7451 12.2694 22.9031 12.4425 23.0968 12.5688L23.6294 12.9206L23.8069 13.0153C25.4528 13.7888 26.8414 15.0122 27.8091 16.5415C28.7768 18.0707 29.2832 19.8421 29.2688 21.6471C29.2688 22.0059 29.4127 22.35 29.6688 22.6037C29.9249 22.8575 30.2722 23 30.6343 23C30.9965 23 31.3438 22.8575 31.5999 22.6037C31.856 22.35 31.9998 22.0059 31.9998 21.6471C32.011 19.5709 31.4862 17.5263 30.4752 15.7077C29.4643 13.8891 28.0008 12.3568 26.2238 11.2565Z" fill="white"/>
</g>
<defs>
<filter id="filter0_di_160:1140" x="0" y="0" width="32" height="25" filterUnits="userSpaceOnUse" color-interpolation-filters="sRGB">
<feFlood flood-opacity="0" result="BackgroundImageFix"/>
<feColorMatrix in="SourceAlpha" type="matrix" values="0 0 0 0 0 0 0 0 0 0 0 0 0 0 0 0 0 0 127 0" result="hardAlpha"/>
<feOffset dx="-2" dy="2"/>
<feComposite in2="hardAlpha" operator="out"/>
<feColorMatrix type="matrix" values="0 0 0 0 0.0935764 0 0 0 0 0.510125 0 0 0 0 0.641667 0 0 0 1 0"/>
<feBlend mode="normal" in2="BackgroundImageFix" result="effect1_dropShadow_160:1140"/>
<feBlend mode="normal" in="SourceGraphic" in2="effect1_dropShadow_160:1140" result="shape"/>
<feColorMatrix in="SourceAlpha" type="matrix" values="0 0 0 0 0 0 0 0 0 0 0 0 0 0 0 0 0 0 127 0" result="hardAlpha"/>
<feOffset/>
<feGaussianBlur stdDeviation="1"/>
<feComposite in2="hardAlpha" operator="arithmetic" k2="-1" k3="1"/>
<feColorMatrix type="matrix" values="0 0 0 0 0 0 0 0 0 0 0 0 0 0 0 0 0 0 0.25 0"/>
<feBlend mode="normal" in2="shape" result="effect2_innerShadow_160:1140"/>
</filter>
</defs>
</svg>
