<svg width="48" height="48" viewBox="0 0 48 48" fill="none" xmlns="http://www.w3.org/2000/svg">
<g filter="url(#filter0_di_160:1129)">
<path d="M45.9091 8.36364H4.09091C3.53637 8.36364 3.00453 8.58393 2.61241 8.97605C2.22029 9.36817 2 9.9 2 10.4545V18.8182C2.00364 20.1123 2.40747 21.3737 3.15614 22.4293C3.90481 23.4849 4.96167 24.2832 6.18182 24.7145V43.9091C6.18182 44.4636 6.40211 44.9955 6.79423 45.3876C7.18635 45.7797 7.71818 46 8.27273 46H41.7273C42.2818 46 42.8136 45.7797 43.2058 45.3876C43.5979 44.9955 43.8182 44.4636 43.8182 43.9091V24.7145C45.0383 24.2832 46.0952 23.4849 46.8439 22.4293C47.5925 21.3737 47.9964 20.1123 48 18.8182V10.4545C48 9.9 47.7797 9.36817 47.3876 8.97605C46.9955 8.58393 46.4636 8.36364 45.9091 8.36364ZM31.2727 12.5455H35.4545V18.8182C35.4545 19.3727 35.2343 19.9046 34.8421 20.2967C34.45 20.6888 33.9182 20.9091 33.3636 20.9091C32.8091 20.9091 32.2773 20.6888 31.8851 20.2967C31.493 19.9046 31.2727 19.3727 31.2727 18.8182V12.5455ZM22.9091 12.5455H27.0909V18.8182C27.0909 19.3727 26.8706 19.9046 26.4785 20.2967C26.0864 20.6888 25.5545 20.9091 25 20.9091C24.4455 20.9091 23.9136 20.6888 23.5215 20.2967C23.1294 19.9046 22.9091 19.3727 22.9091 18.8182V12.5455ZM14.5455 12.5455H18.7273V18.8182C18.7273 19.3727 18.507 19.9046 18.1149 20.2967C17.7227 20.6888 17.1909 20.9091 16.6364 20.9091C16.0818 20.9091 15.55 20.6888 15.1579 20.2967C14.7657 19.9046 14.5455 19.3727 14.5455 18.8182V12.5455ZM8.27273 20.9091C7.71818 20.9091 7.18635 20.6888 6.79423 20.2967C6.40211 19.9046 6.18182 19.3727 6.18182 18.8182V12.5455H10.3636V18.8182C10.3636 19.3727 10.1433 19.9046 9.75122 20.2967C9.3591 20.6888 8.82727 20.9091 8.27273 20.9091ZM29.1818 41.8182H20.8182V37.6364C20.8182 36.5273 21.2588 35.4636 22.043 34.6794C22.8273 33.8951 23.8909 33.4545 25 33.4545C26.1091 33.4545 27.1727 33.8951 27.957 34.6794C28.7412 35.4636 29.1818 36.5273 29.1818 37.6364V41.8182ZM39.6364 41.8182H33.3636V37.6364C33.3636 35.4182 32.4825 33.2909 30.914 31.7224C29.3455 30.1539 27.2182 29.2727 25 29.2727C22.7818 29.2727 20.6545 30.1539 19.086 31.7224C17.5175 33.2909 16.6364 35.4182 16.6364 37.6364V41.8182H10.3636V24.7145C11.1322 24.4293 11.8412 24.0039 12.4545 23.46C13.6046 24.4886 15.0934 25.0573 16.6364 25.0573C18.1793 25.0573 19.6681 24.4886 20.8182 23.46C21.9682 24.4886 23.457 25.0573 25 25.0573C26.5429 25.0573 28.0318 24.4886 29.1818 23.46C30.3319 24.4886 31.8207 25.0573 33.3636 25.0573C34.9066 25.0573 36.3954 24.4886 37.5455 23.46C38.1588 24.0039 38.8678 24.4293 39.6364 24.7145V41.8182ZM43.8182 18.8182C43.8182 19.3727 43.5979 19.9046 43.2058 20.2967C42.8136 20.6888 42.2818 20.9091 41.7273 20.9091C41.1727 20.9091 40.6409 20.6888 40.2488 20.2967C39.8567 19.9046 39.6364 19.3727 39.6364 18.8182V12.5455H43.8182V18.8182ZM8.9 4.18182H41.7273C42.2818 4.18182 42.8136 3.96153 43.2058 3.56941C43.5979 3.17728 43.8182 2.64545 43.8182 2.09091C43.8182 1.53637 43.5979 1.00453 43.2058 0.612413C42.8136 0.220291 42.2818 0 41.7273 0H8.9C8.34546 0 7.81363 0.220291 7.4215 0.612413C7.02938 1.00453 6.80909 1.53637 6.80909 2.09091C6.80909 2.64545 7.02938 3.17728 7.4215 3.56941C7.81363 3.96153 8.34546 4.18182 8.9 4.18182V4.18182Z" fill="url(#paint0_linear_160:1129)"/>
</g>
<defs>
<filter id="filter0_di_160:1129" x="0" y="0" width="48" height="48" filterUnits="userSpaceOnUse" color-interpolation-filters="sRGB">
<feFlood flood-opacity="0" result="BackgroundImageFix"/>
<feColorMatrix in="SourceAlpha" type="matrix" values="0 0 0 0 0 0 0 0 0 0 0 0 0 0 0 0 0 0 127 0" result="hardAlpha"/>
<feOffset dx="-2" dy="2"/>
<feComposite in2="hardAlpha" operator="out"/>
<feColorMatrix type="matrix" values="0 0 0 0 0.0935764 0 0 0 0 0.510125 0 0 0 0 0.641667 0 0 0 1 0"/>
<feBlend mode="normal" in2="BackgroundImageFix" result="effect1_dropShadow_160:1129"/>
<feBlend mode="normal" in="SourceGraphic" in2="effect1_dropShadow_160:1129" result="shape"/>
<feColorMatrix in="SourceAlpha" type="matrix" values="0 0 0 0 0 0 0 0 0 0 0 0 0 0 0 0 0 0 127 0" result="hardAlpha"/>
<feOffset/>
<feGaussianBlur stdDeviation="1"/>
<feComposite in2="hardAlpha" operator="arithmetic" k2="-1" k3="1"/>
<feColorMatrix type="matrix" values="0 0 0 0 0 0 0 0 0 0 0 0 0 0 0 0 0 0 0.25 0"/>
<feBlend mode="normal" in2="shape" result="effect2_innerShadow_160:1129"/>
</filter>
<linearGradient id="paint0_linear_160:1129" x1="25" y1="0" x2="25" y2="46" gradientUnits="userSpaceOnUse">
<stop stop-color="#B8FFF5"/>
<stop offset="1" stop-color="#DCF9F5"/>
</linearGradient>
</defs>
</svg>
